<?xml version="1.0" encoding="UTF-8" standalone="no"?>
<!DOCTYPE svg PUBLIC "-//W3C//DTD SVG 1.1//EN" "http://www.w3.org/Graphics/SVG/1.1/DTD/svg11.dtd">
<svg width="100%" height="100%" viewBox="0 0 1997 1997" version="1.1" xmlns="http://www.w3.org/2000/svg" xmlns:xlink="http://www.w3.org/1999/xlink" xml:space="preserve" xmlns:serif="http://www.serif.com/" style="fill-rule:evenodd;clip-rule:evenodd;stroke-linecap:round;stroke-linejoin:round;stroke-miterlimit:1.5;">
    <g transform="matrix(1,0,0,1,-11.4939,-17.6994)">
        <circle cx="400.3" cy="210.753" r="83.692"/>
    </g>
    <g transform="matrix(1,0,0,1,-3.13567,-1.38503)">
        <path d="M486.405,668.285C465.705,684.972 331.926,612.171 192.986,718.223C54.046,824.276 1.446,982.163 3.705,1087.62C5.965,1193.08 28.943,1234.15 29.852,1249.36C30.762,1264.56 4.758,1424.57 98.384,1586.32C192.009,1748.08 410.563,1956.89 710.823,1882.66C735.026,1876.67 730.746,1950.05 903.722,1987.01C961.855,1999.43 1379.2,1999.24 1425.13,1995.29C1471.06,1991.33 1924.2,1865.57 1934.29,1490.84C1935.16,1458.49 1865.43,1509.78 1803.48,1504.17C1741.54,1498.56 1664.58,1460.64 1587.8,1457.63C1511.03,1454.63 1433.91,1501.66 1393.32,1541.87C1352.72,1582.07 1237.68,1859.77 841.912,1841.08C446.145,1822.39 281.901,1423.61 303.05,1231.64C310.288,1165.95 299.842,998.686 545.381,735.733C661.583,611.29 1116.62,302.396 1170.64,283.003C1186.43,277.335 1181.91,2.653 930.53,1.887C716.971,1.236 685.45,188.132 683.24,218.377C678.596,281.911 707.644,339.528 703.326,350.883C699.008,362.238 604.597,399.089 567.852,442.776C490.062,535.262 507.104,651.597 486.405,668.285Z" style="stroke:black;stroke-width:1px;"/>
    </g>
    <g transform="matrix(1,0,0,1,-3.13567,-1.38503)">
        <path d="M1180.43,521.41C1199.03,510.624 1161.06,1456.68 1161.06,1456.68C1161.06,1456.68 1147.8,1591.16 988.875,1617.16C969.506,1620.33 980.794,962.654 980.794,962.654C980.794,962.654 968.74,886.903 885.646,886.166C802.552,885.429 787.722,972.87 787.722,972.87L780.159,1618.06C780.159,1618.06 500.421,1553.65 496.505,1248.11C492.59,942.567 916.973,674.214 1180.43,521.41Z" style="stroke:black;stroke-width:1px;"/>
    </g>
    <g transform="matrix(1,0,0,1,-3.13567,-1.38503)">
        <path d="M1393.25,220.064C1374.03,238.246 1576.34,170.824 1749.85,304.767C1923.36,438.709 1975.99,662.064 1947.74,691.562C1919.5,721.06 1900.94,667.962 1697.61,662.753C1494.28,657.545 1418.56,764.977 1386.74,765.264C1354.91,765.551 1412.46,201.883 1393.25,220.064Z" style="stroke:black;stroke-width:1px;"/>
    </g>
    <g transform="matrix(1,0,0,1,-3.13567,-1.38503)">
        <path d="M1358.06,1317.27C1354.52,1314.72 1302.71,1086.91 1474.2,951.395C1645.68,815.882 1839.72,875.204 1930.8,948.647C2021.88,1022.09 1997.13,1113.08 1991.24,1138.97C1985.35,1164.86 1954.74,1286.73 1813.54,1287.06C1672.34,1287.38 1763.53,1247.57 1596.98,1238.93C1430.42,1230.3 1363.68,1321.31 1358.06,1317.27Z" style="stroke:black;stroke-width:1px;"/>
    </g>
</svg>
